<?xml version="1.0" encoding="UTF-8"?>
<svg id="Camada_1" data-name="Camada 1" xmlns="http://www.w3.org/2000/svg" xmlns:xlink="http://www.w3.org/1999/xlink" viewBox="0 0 3120.44 577.53">
  <defs>
    <style>
      .cls-1 {
        fill: none;
      }

      .cls-1, .cls-2 {
        stroke-width: 0px;
      }

      .cls-2 {
        fill: #fff;
      }

      .cls-3 {
        opacity: .32;
      }

      .cls-4 {
        clip-path: url(#clippath);
      }
    </style>
    <clipPath id="clippath">
      <rect class="cls-1" x="76.03" y="0" width="2959.35" height="577.53"/>
    </clipPath>
  </defs>
  <g class="cls-4">
    <g class="cls-3">
      <g>
        <path class="cls-2" d="m2124.63,289h23.3s-5.6-75.89-5.6-75.89c-.76-10.3,4.67-19.96,13.85-24.61,11.64-5.89,24.26-8.88,37.5-8.88h2.68c13.25,0,25.86,2.99,37.5,8.88,9.18,4.65,14.61,14.31,13.85,24.62l-5.6,75.89h23.31s5.48-74.21,5.48-74.21c1.44-19.54-8.94-37.89-26.44-46.75-14.95-7.57-31.13-11.41-48.1-11.41h-2.68c-16.97,0-33.15,3.84-48.1,11.41-17.5,8.87-27.88,27.22-26.44,46.75l5.48,74.21Z"/>
        <path class="cls-2" d="m2294.51,289h23.3s-5.6-75.89-5.6-75.89c-.76-10.3,4.67-19.96,13.85-24.61,11.65-5.89,24.26-8.88,37.5-8.88h2.68c13.25,0,25.86,2.99,37.5,8.88,9.18,4.65,14.61,14.31,13.85,24.62l-5.6,75.89h23.3s5.48-74.21,5.48-74.21c1.44-19.54-8.94-37.89-26.44-46.75-14.95-7.57-31.13-11.41-48.1-11.41h-2.68c-16.97,0-33.15,3.84-48.1,11.41-17.5,8.87-27.88,27.22-26.43,46.75l5.48,74.21Z"/>
        <path class="cls-2" d="m2464.4,289h23.3s-5.6-75.89-5.6-75.89c-.76-10.3,4.67-19.96,13.85-24.61,11.64-5.89,24.26-8.88,37.5-8.88h2.68c13.25,0,25.86,2.99,37.5,8.88,9.18,4.65,14.61,14.31,13.85,24.62l-5.6,75.89h23.3s5.48-74.21,5.48-74.21c1.44-19.54-8.94-37.89-26.44-46.75-14.95-7.57-31.13-11.41-48.1-11.41h-2.68c-16.97,0-33.15,3.84-48.1,11.41-17.5,8.87-27.88,27.22-26.44,46.75l5.48,74.21Z"/>
        <path class="cls-2" d="m2634.28,289h23.3s-5.6-75.89-5.6-75.89c-.76-10.3,4.67-19.96,13.85-24.61,11.64-5.89,24.26-8.88,37.5-8.88h2.68c13.25,0,25.86,2.99,37.5,8.88,9.18,4.65,14.61,14.31,13.85,24.62l-5.6,75.89h23.3s5.48-74.21,5.48-74.21c1.44-19.54-8.94-37.89-26.44-46.75-14.95-7.57-31.13-11.41-48.1-11.41h-2.68c-16.97,0-33.15,3.84-48.1,11.41-17.5,8.87-27.88,27.22-26.44,46.75l5.48,74.21Z"/>
        <path class="cls-2" d="m2804.16,289h23.3s-5.6-75.89-5.6-75.89c-.76-10.3,4.67-19.96,13.85-24.61,11.64-5.89,24.26-8.88,37.5-8.88h2.68c13.25,0,25.86,2.99,37.5,8.88,9.18,4.65,14.61,14.31,13.85,24.62l-5.6,75.89h23.3s5.48-74.21,5.48-74.21c1.44-19.54-8.94-37.89-26.44-46.75-14.95-7.57-31.13-11.41-48.1-11.41h-2.68c-16.97,0-33.14,3.84-48.1,11.41-17.5,8.87-27.88,27.22-26.43,46.75l5.48,74.21Z"/>
        <path class="cls-2" d="m2974.04,289h23.3s-5.6-75.89-5.6-75.89c-.76-10.3,4.67-19.96,13.85-24.61,11.64-5.89,24.26-8.88,37.5-8.88h2.68c13.24,0,25.86,2.99,37.5,8.88,9.18,4.65,14.61,14.31,13.85,24.62l-5.6,75.89h23.31s5.48-74.21,5.48-74.21c1.44-19.54-8.94-37.89-26.44-46.75-14.95-7.57-31.13-11.41-48.1-11.41h-2.68c-16.97,0-33.15,3.84-48.1,11.41-17.5,8.87-27.88,27.22-26.44,46.75l5.48,74.21Z"/>
        <path class="cls-2" d="m2124.63,0h23.3s-5.6,75.89-5.6,75.89c-.76,10.3,4.67,19.96,13.85,24.61,11.64,5.89,24.26,8.88,37.5,8.88h2.68c13.25,0,25.86-2.99,37.5-8.88,9.18-4.65,14.61-14.31,13.85-24.62L2242.11,0h23.31s5.48,74.21,5.48,74.21c1.44,19.54-8.94,37.89-26.44,46.75-14.95,7.57-31.13,11.41-48.1,11.41h-2.68c-16.97,0-33.15-3.84-48.1-11.41-17.5-8.87-27.88-27.22-26.44-46.75L2124.63,0Z"/>
        <path class="cls-2" d="m2294.51,0h23.3s-5.6,75.89-5.6,75.89c-.76,10.3,4.67,19.96,13.85,24.61,11.65,5.89,24.26,8.88,37.5,8.88h2.68c13.25,0,25.86-2.99,37.5-8.88,9.18-4.65,14.61-14.31,13.85-24.62L2411.99,0h23.3s5.48,74.21,5.48,74.21c1.44,19.54-8.94,37.89-26.44,46.75-14.95,7.57-31.13,11.41-48.1,11.41h-2.68c-16.97,0-33.15-3.84-48.1-11.41-17.5-8.87-27.88-27.22-26.43-46.75L2294.51,0Z"/>
        <path class="cls-2" d="m2464.4,0h23.3s-5.6,75.89-5.6,75.89c-.76,10.3,4.67,19.96,13.85,24.61,11.64,5.89,24.26,8.88,37.5,8.88h2.68c13.25,0,25.86-2.99,37.5-8.88,9.18-4.65,14.61-14.31,13.85-24.62L2581.88,0h23.3s5.48,74.21,5.48,74.21c1.44,19.54-8.94,37.89-26.44,46.75-14.95,7.57-31.13,11.41-48.1,11.41h-2.68c-16.97,0-33.15-3.84-48.1-11.41-17.5-8.87-27.88-27.22-26.44-46.75L2464.4,0Z"/>
        <path class="cls-2" d="m2634.28,0h23.3s-5.6,75.89-5.6,75.89c-.76,10.3,4.67,19.96,13.85,24.61,11.64,5.89,24.26,8.88,37.5,8.88h2.68c13.25,0,25.86-2.99,37.5-8.88,9.18-4.65,14.61-14.31,13.85-24.62L2751.76,0h23.3s5.48,74.21,5.48,74.21c1.44,19.54-8.94,37.89-26.44,46.75-14.95,7.57-31.13,11.41-48.1,11.41h-2.68c-16.97,0-33.15-3.84-48.1-11.41-17.5-8.87-27.88-27.22-26.44-46.75L2634.28,0Z"/>
        <path class="cls-2" d="m2804.16,0h23.3s-5.6,75.89-5.6,75.89c-.76,10.3,4.67,19.96,13.85,24.61,11.64,5.89,24.26,8.88,37.5,8.88h2.68c13.25,0,25.86-2.99,37.5-8.88,9.18-4.65,14.61-14.31,13.85-24.62L2921.64,0h23.3s5.48,74.21,5.48,74.21c1.44,19.54-8.94,37.89-26.44,46.75-14.95,7.57-31.13,11.41-48.1,11.41h-2.68c-16.97,0-33.14-3.84-48.1-11.41-17.5-8.87-27.88-27.22-26.43-46.75L2804.16,0Z"/>
        <path class="cls-2" d="m2974.04,0h23.3s-5.6,75.89-5.6,75.89c-.76,10.3,4.67,19.96,13.85,24.61,11.64,5.89,24.26,8.88,37.5,8.88h2.68c13.24,0,25.86-2.99,37.5-8.88,9.18-4.65,14.61-14.31,13.85-24.62L3091.52,0h23.31s5.48,74.21,5.48,74.21c1.44,19.54-8.94,37.89-26.44,46.75-14.95,7.57-31.13,11.41-48.1,11.41h-2.68c-16.97,0-33.15-3.84-48.1-11.41-17.5-8.87-27.88-27.22-26.44-46.75L2974.04,0Z"/>
      </g>
      <g>
        <path class="cls-2" d="m1105.34,289h23.3s-5.6-75.89-5.6-75.89c-.76-10.3,4.67-19.96,13.85-24.61,11.64-5.89,24.26-8.88,37.5-8.88h2.68c13.25,0,25.86,2.99,37.5,8.88,9.18,4.65,14.61,14.31,13.85,24.62l-5.6,75.89h23.31s5.48-74.21,5.48-74.21c1.44-19.54-8.94-37.89-26.44-46.75-14.95-7.57-31.13-11.41-48.1-11.41h-2.68c-16.97,0-33.15,3.84-48.1,11.41-17.5,8.87-27.88,27.22-26.44,46.75l5.48,74.21Z"/>
        <path class="cls-2" d="m1275.23,289h23.3s-5.6-75.89-5.6-75.89c-.76-10.3,4.67-19.96,13.85-24.61,11.65-5.89,24.26-8.88,37.5-8.88h2.68c13.25,0,25.86,2.99,37.5,8.88,9.18,4.65,14.61,14.31,13.85,24.62l-5.6,75.89h23.3s5.48-74.21,5.48-74.21c1.44-19.54-8.94-37.89-26.44-46.75-14.95-7.57-31.13-11.41-48.1-11.41h-2.68c-16.97,0-33.15,3.84-48.1,11.41-17.5,8.87-27.88,27.22-26.43,46.75l5.48,74.21Z"/>
        <path class="cls-2" d="m1445.11,289h23.3s-5.6-75.89-5.6-75.89c-.76-10.3,4.67-19.96,13.85-24.61,11.64-5.89,24.26-8.88,37.5-8.88h2.68c13.25,0,25.86,2.99,37.5,8.88,9.18,4.65,14.61,14.31,13.85,24.62l-5.6,75.89h23.3s5.48-74.21,5.48-74.21c1.44-19.54-8.94-37.89-26.44-46.75-14.95-7.57-31.13-11.41-48.1-11.41h-2.68c-16.97,0-33.15,3.84-48.1,11.41-17.5,8.87-27.88,27.22-26.44,46.75l5.48,74.21Z"/>
        <path class="cls-2" d="m1614.99,289h23.3s-5.6-75.89-5.6-75.89c-.76-10.3,4.67-19.96,13.85-24.61,11.64-5.89,24.26-8.88,37.5-8.88h2.68c13.25,0,25.86,2.99,37.5,8.88,9.18,4.65,14.61,14.31,13.85,24.62l-5.6,75.89h23.3s5.48-74.21,5.48-74.21c1.44-19.54-8.94-37.89-26.44-46.75-14.95-7.57-31.13-11.41-48.1-11.41h-2.68c-16.97,0-33.15,3.84-48.1,11.41-17.5,8.87-27.88,27.22-26.44,46.75l5.48,74.21Z"/>
        <path class="cls-2" d="m1784.87,289h23.3s-5.6-75.89-5.6-75.89c-.76-10.3,4.67-19.96,13.85-24.61,11.64-5.89,24.26-8.88,37.5-8.88h2.68c13.25,0,25.86,2.99,37.5,8.88,9.18,4.65,14.61,14.31,13.85,24.62l-5.6,75.89h23.3s5.48-74.21,5.48-74.21c1.44-19.54-8.94-37.89-26.44-46.75-14.95-7.57-31.13-11.41-48.1-11.41h-2.68c-16.97,0-33.14,3.84-48.1,11.41-17.5,8.87-27.88,27.22-26.43,46.75l5.48,74.21Z"/>
        <path class="cls-2" d="m1954.75,289h23.3s-5.6-75.89-5.6-75.89c-.76-10.3,4.67-19.96,13.85-24.61,11.64-5.89,24.26-8.88,37.5-8.88h2.68c13.24,0,25.86,2.99,37.5,8.88,9.18,4.65,14.61,14.31,13.85,24.62l-5.6,75.89h23.31s5.48-74.21,5.48-74.21c1.44-19.54-8.94-37.89-26.44-46.75-14.95-7.57-31.13-11.41-48.1-11.41h-2.68c-16.97,0-33.15,3.84-48.1,11.41-17.5,8.87-27.88,27.22-26.44,46.75l5.48,74.21Z"/>
        <path class="cls-2" d="m1105.34,0h23.3s-5.6,75.89-5.6,75.89c-.76,10.3,4.67,19.96,13.85,24.61,11.64,5.89,24.26,8.88,37.5,8.88h2.68c13.25,0,25.86-2.99,37.5-8.88,9.18-4.65,14.61-14.31,13.85-24.62L1222.82,0h23.31s5.48,74.21,5.48,74.21c1.44,19.54-8.94,37.89-26.44,46.75-14.95,7.57-31.13,11.41-48.1,11.41h-2.68c-16.97,0-33.15-3.84-48.1-11.41-17.5-8.87-27.88-27.22-26.44-46.75L1105.34,0Z"/>
        <path class="cls-2" d="m1275.23,0h23.3s-5.6,75.89-5.6,75.89c-.76,10.3,4.67,19.96,13.85,24.61,11.65,5.89,24.26,8.88,37.5,8.88h2.68c13.25,0,25.86-2.99,37.5-8.88,9.18-4.65,14.61-14.31,13.85-24.62L1392.71,0h23.3s5.48,74.21,5.48,74.21c1.44,19.54-8.94,37.89-26.44,46.75-14.95,7.57-31.13,11.41-48.1,11.41h-2.68c-16.97,0-33.15-3.84-48.1-11.41-17.5-8.87-27.88-27.22-26.43-46.75L1275.23,0Z"/>
        <path class="cls-2" d="m1445.11,0h23.3s-5.6,75.89-5.6,75.89c-.76,10.3,4.67,19.96,13.85,24.61,11.64,5.89,24.26,8.88,37.5,8.88h2.68c13.25,0,25.86-2.99,37.5-8.88,9.18-4.65,14.61-14.31,13.85-24.62L1562.59,0h23.3s5.48,74.21,5.48,74.21c1.44,19.54-8.94,37.89-26.44,46.75-14.95,7.57-31.13,11.41-48.1,11.41h-2.68c-16.97,0-33.15-3.84-48.1-11.41-17.5-8.87-27.88-27.22-26.44-46.75L1445.11,0Z"/>
        <path class="cls-2" d="m1614.99,0h23.3s-5.6,75.89-5.6,75.89c-.76,10.3,4.67,19.96,13.85,24.61,11.64,5.89,24.26,8.88,37.5,8.88h2.68c13.25,0,25.86-2.99,37.5-8.88,9.18-4.65,14.61-14.31,13.85-24.62L1732.47,0h23.3s5.48,74.21,5.48,74.21c1.44,19.54-8.94,37.89-26.44,46.75-14.95,7.57-31.13,11.41-48.1,11.41h-2.68c-16.97,0-33.15-3.84-48.1-11.41-17.5-8.87-27.88-27.22-26.44-46.75L1614.99,0Z"/>
        <path class="cls-2" d="m1784.87,0h23.3s-5.6,75.89-5.6,75.89c-.76,10.3,4.67,19.96,13.85,24.61,11.64,5.89,24.26,8.88,37.5,8.88h2.68c13.25,0,25.86-2.99,37.5-8.88,9.18-4.65,14.61-14.31,13.85-24.62L1902.35,0h23.3s5.48,74.21,5.48,74.21c1.44,19.54-8.94,37.89-26.44,46.75-14.95,7.57-31.13,11.41-48.1,11.41h-2.68c-16.97,0-33.14-3.84-48.1-11.41-17.5-8.87-27.88-27.22-26.43-46.75L1784.87,0Z"/>
        <path class="cls-2" d="m1954.75,0h23.3s-5.6,75.89-5.6,75.89c-.76,10.3,4.67,19.96,13.85,24.61,11.64,5.89,24.26,8.88,37.5,8.88h2.68c13.24,0,25.86-2.99,37.5-8.88,9.18-4.65,14.61-14.31,13.85-24.62L2072.23,0h23.31s5.48,74.21,5.48,74.21c1.44,19.54-8.94,37.89-26.44,46.75-14.95,7.57-31.13,11.41-48.1,11.41h-2.68c-16.97,0-33.15-3.84-48.1-11.41-17.5-8.87-27.88-27.22-26.44-46.75L1954.75,0Z"/>
      </g>
      <g>
        <path class="cls-2" d="m86.06,289h23.3s-5.6-75.89-5.6-75.89c-.76-10.3,4.67-19.96,13.85-24.61,11.64-5.89,24.26-8.88,37.5-8.88h2.68c13.25,0,25.86,2.99,37.5,8.88,9.18,4.65,14.61,14.31,13.85,24.62l-5.6,75.89h23.31s5.48-74.21,5.48-74.21c1.44-19.54-8.94-37.89-26.44-46.75-14.95-7.57-31.13-11.41-48.1-11.41h-2.68c-16.97,0-33.15,3.84-48.1,11.41-17.5,8.87-27.88,27.22-26.44,46.75l5.48,74.21Z"/>
        <path class="cls-2" d="m255.94,289h23.3s-5.6-75.89-5.6-75.89c-.76-10.3,4.67-19.96,13.85-24.61,11.65-5.89,24.26-8.88,37.5-8.88h2.68c13.25,0,25.86,2.99,37.5,8.88,9.18,4.65,14.61,14.31,13.85,24.62l-5.6,75.89h23.3s5.48-74.21,5.48-74.21c1.44-19.54-8.94-37.89-26.44-46.75-14.95-7.57-31.13-11.41-48.1-11.41h-2.68c-16.97,0-33.15,3.84-48.1,11.41-17.5,8.87-27.88,27.22-26.43,46.75l5.48,74.21Z"/>
        <path class="cls-2" d="m425.82,289h23.3s-5.6-75.89-5.6-75.89c-.76-10.3,4.67-19.96,13.85-24.61,11.64-5.89,24.26-8.88,37.5-8.88h2.68c13.25,0,25.86,2.99,37.5,8.88,9.18,4.65,14.61,14.31,13.85,24.62l-5.6,75.89h23.3s5.48-74.21,5.48-74.21c1.44-19.54-8.94-37.89-26.44-46.75-14.95-7.57-31.13-11.41-48.1-11.41h-2.68c-16.97,0-33.15,3.84-48.1,11.41-17.5,8.87-27.88,27.22-26.44,46.75l5.48,74.21Z"/>
        <path class="cls-2" d="m595.7,289h23.3s-5.6-75.89-5.6-75.89c-.76-10.3,4.67-19.96,13.85-24.61,11.64-5.89,24.26-8.88,37.5-8.88h2.68c13.25,0,25.86,2.99,37.5,8.88,9.18,4.65,14.61,14.31,13.85,24.62l-5.6,75.89h23.3s5.48-74.21,5.48-74.21c1.44-19.54-8.94-37.89-26.44-46.75-14.95-7.57-31.13-11.41-48.1-11.41h-2.68c-16.97,0-33.15,3.84-48.1,11.41-17.5,8.87-27.88,27.22-26.44,46.75l5.48,74.21Z"/>
        <path class="cls-2" d="m765.58,289h23.3s-5.6-75.89-5.6-75.89c-.76-10.3,4.67-19.96,13.85-24.61,11.64-5.89,24.26-8.88,37.5-8.88h2.68c13.25,0,25.86,2.99,37.5,8.88,9.18,4.65,14.61,14.31,13.85,24.62l-5.6,75.89h23.3s5.48-74.21,5.48-74.21c1.44-19.54-8.94-37.89-26.44-46.75-14.95-7.57-31.13-11.41-48.1-11.41h-2.68c-16.97,0-33.14,3.84-48.1,11.41-17.5,8.87-27.88,27.22-26.43,46.75l5.48,74.21Z"/>
        <path class="cls-2" d="m935.47,289h23.3s-5.6-75.89-5.6-75.89c-.76-10.3,4.67-19.96,13.85-24.61,11.64-5.89,24.26-8.88,37.5-8.88h2.68c13.24,0,25.86,2.99,37.5,8.88,9.18,4.65,14.61,14.31,13.85,24.62l-5.6,75.89h23.31s5.48-74.21,5.48-74.21c1.44-19.54-8.94-37.89-26.44-46.75-14.95-7.57-31.13-11.41-48.1-11.41h-2.68c-16.97,0-33.15,3.84-48.1,11.41-17.5,8.87-27.88,27.22-26.44,46.75l5.48,74.21Z"/>
        <path class="cls-2" d="m86.06,0h23.3s-5.6,75.89-5.6,75.89c-.76,10.3,4.67,19.96,13.85,24.61,11.64,5.89,24.26,8.88,37.5,8.88h2.68c13.25,0,25.86-2.99,37.5-8.88,9.18-4.65,14.61-14.31,13.85-24.62L203.54,0h23.31s5.48,74.21,5.48,74.21c1.44,19.54-8.94,37.89-26.44,46.75-14.95,7.57-31.13,11.41-48.1,11.41h-2.68c-16.97,0-33.15-3.84-48.1-11.41-17.5-8.87-27.88-27.22-26.44-46.75L86.06,0Z"/>
        <path class="cls-2" d="m255.94,0h23.3s-5.6,75.89-5.6,75.89c-.76,10.3,4.67,19.96,13.85,24.61,11.65,5.89,24.26,8.88,37.5,8.88h2.68c13.25,0,25.86-2.99,37.5-8.88,9.18-4.65,14.61-14.31,13.85-24.62L373.42,0h23.3s5.48,74.21,5.48,74.21c1.44,19.54-8.94,37.89-26.44,46.75-14.95,7.57-31.13,11.41-48.1,11.41h-2.68c-16.97,0-33.15-3.84-48.1-11.41-17.5-8.87-27.88-27.22-26.43-46.75L255.94,0Z"/>
        <path class="cls-2" d="m425.82,0h23.3s-5.6,75.89-5.6,75.89c-.76,10.3,4.67,19.96,13.85,24.61,11.64,5.89,24.26,8.88,37.5,8.88h2.68c13.25,0,25.86-2.99,37.5-8.88,9.18-4.65,14.61-14.31,13.85-24.62L543.3,0h23.3s5.48,74.21,5.48,74.21c1.44,19.54-8.94,37.89-26.44,46.75-14.95,7.57-31.13,11.41-48.1,11.41h-2.68c-16.97,0-33.15-3.84-48.1-11.41-17.5-8.87-27.88-27.22-26.44-46.75L425.82,0Z"/>
        <path class="cls-2" d="m595.7,0h23.3s-5.6,75.89-5.6,75.89c-.76,10.3,4.67,19.96,13.85,24.61,11.64,5.89,24.26,8.88,37.5,8.88h2.68c13.25,0,25.86-2.99,37.5-8.88,9.18-4.65,14.61-14.31,13.85-24.62L713.18,0h23.3s5.48,74.21,5.48,74.21c1.44,19.54-8.94,37.89-26.44,46.75-14.95,7.57-31.13,11.41-48.1,11.41h-2.68c-16.97,0-33.15-3.84-48.1-11.41-17.5-8.87-27.88-27.22-26.44-46.75L595.7,0Z"/>
        <path class="cls-2" d="m765.58,0h23.3s-5.6,75.89-5.6,75.89c-.76,10.3,4.67,19.96,13.85,24.61,11.64,5.89,24.26,8.88,37.5,8.88h2.68c13.25,0,25.86-2.99,37.5-8.88,9.18-4.65,14.61-14.31,13.85-24.62L883.07,0h23.3s5.48,74.21,5.48,74.21c1.44,19.54-8.94,37.89-26.44,46.75-14.95,7.57-31.13,11.41-48.1,11.41h-2.68c-16.97,0-33.14-3.84-48.1-11.41-17.5-8.87-27.88-27.22-26.43-46.75L765.58,0Z"/>
        <path class="cls-2" d="m935.47,0h23.3s-5.6,75.89-5.6,75.89c-.76,10.3,4.67,19.96,13.85,24.61,11.64,5.89,24.26,8.88,37.5,8.88h2.68c13.24,0,25.86-2.99,37.5-8.88,9.18-4.65,14.61-14.31,13.85-24.62L1052.95,0h23.31s5.48,74.21,5.48,74.21c1.44,19.54-8.94,37.89-26.44,46.75-14.95,7.57-31.13,11.41-48.1,11.41h-2.68c-16.97,0-33.15-3.84-48.1-11.41-17.5-8.87-27.88-27.22-26.44-46.75L935.47,0Z"/>
      </g>
    </g>
    <g class="cls-3">
      <g>
        <path class="cls-2" d="m2044.86,577.53h23.31s-5.6-75.92-5.6-75.92c-.76-10.3,4.67-19.97,13.85-24.62,11.65-5.9,24.27-8.89,37.52-8.89h2.68c13.25,0,25.87,2.99,37.51,8.89,9.18,4.65,14.62,14.31,13.86,24.62l-5.6,75.91h23.31s5.48-74.23,5.48-74.23c1.44-19.54-8.94-37.9-26.45-46.77-14.95-7.57-31.14-11.42-48.11-11.42h-2.68c-16.97,0-33.16,3.84-48.11,11.42-17.51,8.87-27.89,27.22-26.44,46.76l5.48,74.24Z"/>
        <path class="cls-2" d="m2214.8,577.53h23.31s-5.6-75.92-5.6-75.92c-.76-10.3,4.67-19.97,13.85-24.62,11.65-5.9,24.27-8.89,37.52-8.89h2.68c13.25,0,25.87,2.99,37.51,8.89,9.18,4.65,14.62,14.31,13.86,24.62l-5.6,75.91h23.31s5.48-74.23,5.48-74.23c1.44-19.54-8.94-37.9-26.45-46.77-14.95-7.57-31.14-11.42-48.11-11.42h-2.68c-16.97,0-33.16,3.84-48.11,11.42-17.51,8.87-27.89,27.22-26.44,46.76l5.48,74.24Z"/>
        <path class="cls-2" d="m2384.74,577.53h23.31s-5.6-75.92-5.6-75.92c-.76-10.3,4.68-19.97,13.85-24.62,11.65-5.9,24.27-8.89,37.52-8.89h2.68c13.25,0,25.87,2.99,37.51,8.89,9.18,4.65,14.62,14.31,13.85,24.62l-5.6,75.91h23.31s5.48-74.23,5.48-74.23c1.44-19.54-8.94-37.9-26.45-46.77-14.95-7.57-31.14-11.42-48.11-11.42h-2.68c-16.97,0-33.16,3.84-48.11,11.42-17.51,8.87-27.89,27.22-26.44,46.76l5.48,74.24Z"/>
        <path class="cls-2" d="m2554.68,577.53h23.31s-5.6-75.92-5.6-75.92c-.76-10.3,4.68-19.97,13.85-24.62,11.65-5.9,24.27-8.89,37.51-8.89h2.68c13.25,0,25.87,2.99,37.51,8.89,9.18,4.65,14.62,14.31,13.85,24.62l-5.6,75.91h23.31s5.48-74.23,5.48-74.23c1.44-19.54-8.94-37.9-26.45-46.77-14.96-7.57-31.14-11.42-48.11-11.42h-2.68c-16.97,0-33.16,3.84-48.11,11.42-17.51,8.87-27.89,27.22-26.44,46.76l5.48,74.24Z"/>
        <path class="cls-2" d="m2724.62,577.53h23.31s-5.6-75.92-5.6-75.92c-.76-10.3,4.68-19.97,13.85-24.62,11.65-5.9,24.27-8.89,37.51-8.89h2.68c13.25,0,25.87,2.99,37.51,8.89,9.18,4.65,14.62,14.31,13.85,24.62l-5.6,75.91h23.31s5.48-74.23,5.48-74.23c1.44-19.54-8.94-37.9-26.45-46.77-14.95-7.57-31.14-11.42-48.11-11.42h-2.68c-16.97,0-33.15,3.84-48.11,11.42-17.51,8.87-27.89,27.22-26.44,46.76l5.48,74.24Z"/>
        <path class="cls-2" d="m2894.55,577.53h23.31s-5.6-75.92-5.6-75.92c-.76-10.3,4.68-19.97,13.85-24.62,11.65-5.9,24.27-8.89,37.51-8.89h2.68c13.25,0,25.87,2.99,37.51,8.89,9.18,4.65,14.62,14.31,13.86,24.62l-5.6,75.91h23.31s5.48-74.23,5.48-74.23c1.44-19.54-8.94-37.9-26.45-46.77-14.96-7.57-31.14-11.42-48.11-11.42h-2.68c-16.97,0-33.16,3.84-48.11,11.42-17.51,8.87-27.89,27.22-26.44,46.76l5.48,74.24Z"/>
        <path class="cls-2" d="m2044.86,288.43h23.31s-5.6,75.92-5.6,75.92c-.76,10.3,4.67,19.97,13.85,24.62,11.65,5.9,24.27,8.89,37.52,8.89h2.68c13.25,0,25.87-2.99,37.51-8.89,9.18-4.65,14.62-14.31,13.86-24.62l-5.6-75.91h23.31s5.48,74.23,5.48,74.23c1.44,19.54-8.94,37.9-26.45,46.77-14.95,7.57-31.14,11.42-48.11,11.42h-2.68c-16.97,0-33.16-3.84-48.11-11.42-17.51-8.87-27.89-27.22-26.44-46.76l5.48-74.24Z"/>
        <path class="cls-2" d="m2214.8,288.43h23.31s-5.6,75.92-5.6,75.92c-.76,10.3,4.67,19.97,13.85,24.62,11.65,5.9,24.27,8.89,37.52,8.89h2.68c13.25,0,25.87-2.99,37.51-8.89,9.18-4.65,14.62-14.31,13.86-24.62l-5.6-75.91h23.31s5.48,74.23,5.48,74.23c1.44,19.54-8.94,37.9-26.45,46.77-14.95,7.57-31.14,11.42-48.11,11.42h-2.68c-16.97,0-33.16-3.84-48.11-11.42-17.51-8.87-27.89-27.22-26.44-46.76l5.48-74.24Z"/>
        <path class="cls-2" d="m2384.74,288.43h23.31s-5.6,75.92-5.6,75.92c-.76,10.3,4.68,19.97,13.85,24.62,11.65,5.9,24.27,8.89,37.52,8.89h2.68c13.25,0,25.87-2.99,37.51-8.89,9.18-4.65,14.62-14.31,13.85-24.62l-5.6-75.91h23.31s5.48,74.23,5.48,74.23c1.44,19.54-8.94,37.9-26.45,46.77-14.95,7.57-31.14,11.42-48.11,11.42h-2.68c-16.97,0-33.16-3.84-48.11-11.42-17.51-8.87-27.89-27.22-26.44-46.76l5.48-74.24Z"/>
        <path class="cls-2" d="m2554.68,288.43h23.31s-5.6,75.92-5.6,75.92c-.76,10.3,4.68,19.97,13.85,24.62,11.65,5.9,24.27,8.89,37.51,8.89h2.68c13.25,0,25.87-2.99,37.51-8.89,9.18-4.65,14.62-14.31,13.85-24.62l-5.6-75.91h23.31s5.48,74.23,5.48,74.23c1.44,19.54-8.94,37.9-26.45,46.77-14.96,7.57-31.14,11.42-48.11,11.42h-2.68c-16.97,0-33.16-3.84-48.11-11.42-17.51-8.87-27.89-27.22-26.44-46.76l5.48-74.24Z"/>
        <path class="cls-2" d="m2724.61,288.43h23.31s-5.6,75.92-5.6,75.92c-.76,10.3,4.68,19.97,13.85,24.62,11.65,5.9,24.27,8.89,37.51,8.89h2.68c13.25,0,25.87-2.99,37.51-8.89,9.18-4.65,14.62-14.31,13.85-24.62l-5.6-75.91h23.31s5.48,74.23,5.48,74.23c1.44,19.54-8.94,37.9-26.45,46.77-14.95,7.57-31.14,11.42-48.11,11.42h-2.68c-16.97,0-33.15-3.84-48.11-11.42-17.51-8.87-27.89-27.22-26.44-46.76l5.48-74.24Z"/>
        <path class="cls-2" d="m2894.55,288.43h23.31s-5.6,75.92-5.6,75.92c-.76,10.3,4.68,19.97,13.85,24.62,11.65,5.9,24.27,8.89,37.51,8.89h2.68c13.25,0,25.87-2.99,37.51-8.89,9.18-4.65,14.62-14.31,13.86-24.62l-5.6-75.91h23.31s5.48,74.23,5.48,74.23c1.44,19.54-8.94,37.9-26.45,46.77-14.96,7.57-31.14,11.42-48.11,11.42h-2.68c-16.97,0-33.16-3.84-48.11-11.42-17.51-8.87-27.89-27.22-26.44-46.76l5.48-74.24Z"/>
      </g>
      <g>
        <path class="cls-2" d="m1025.24,577.53h23.31s-5.6-75.92-5.6-75.92c-.76-10.3,4.67-19.97,13.85-24.62,11.65-5.9,24.27-8.89,37.52-8.89h2.68c13.25,0,25.87,2.99,37.51,8.89,9.18,4.65,14.62,14.31,13.86,24.62l-5.6,75.91h23.31s5.48-74.23,5.48-74.23c1.44-19.54-8.94-37.9-26.45-46.77-14.95-7.57-31.14-11.42-48.11-11.42h-2.68c-16.97,0-33.16,3.84-48.11,11.42-17.51,8.87-27.89,27.22-26.44,46.76l5.48,74.24Z"/>
        <path class="cls-2" d="m1195.18,577.53h23.31s-5.6-75.92-5.6-75.92c-.76-10.3,4.67-19.97,13.85-24.62,11.65-5.9,24.27-8.89,37.52-8.89h2.68c13.25,0,25.87,2.99,37.51,8.89,9.18,4.65,14.62,14.31,13.86,24.62l-5.6,75.91h23.31s5.48-74.23,5.48-74.23c1.44-19.54-8.94-37.9-26.45-46.77-14.95-7.57-31.14-11.42-48.11-11.42h-2.68c-16.97,0-33.16,3.84-48.11,11.42-17.51,8.87-27.89,27.22-26.44,46.76l5.48,74.24Z"/>
        <path class="cls-2" d="m1365.12,577.53h23.31s-5.6-75.92-5.6-75.92c-.76-10.3,4.68-19.97,13.85-24.62,11.65-5.9,24.27-8.89,37.52-8.89h2.68c13.25,0,25.87,2.99,37.51,8.89,9.18,4.65,14.62,14.31,13.85,24.62l-5.6,75.91h23.31s5.48-74.23,5.48-74.23c1.44-19.54-8.94-37.9-26.45-46.77-14.95-7.57-31.14-11.42-48.11-11.42h-2.68c-16.97,0-33.16,3.84-48.11,11.42-17.51,8.87-27.89,27.22-26.44,46.76l5.48,74.24Z"/>
        <path class="cls-2" d="m1535.05,577.53h23.31s-5.6-75.92-5.6-75.92c-.76-10.3,4.68-19.97,13.85-24.62,11.65-5.9,24.27-8.89,37.51-8.89h2.68c13.25,0,25.87,2.99,37.51,8.89,9.18,4.65,14.62,14.31,13.85,24.62l-5.6,75.91h23.31s5.48-74.23,5.48-74.23c1.44-19.54-8.94-37.9-26.45-46.77-14.96-7.57-31.14-11.42-48.11-11.42h-2.68c-16.97,0-33.16,3.84-48.11,11.42-17.51,8.87-27.89,27.22-26.44,46.76l5.48,74.24Z"/>
        <path class="cls-2" d="m1704.99,577.53h23.31s-5.6-75.92-5.6-75.92c-.76-10.3,4.68-19.97,13.85-24.62,11.65-5.9,24.27-8.89,37.51-8.89h2.68c13.25,0,25.87,2.99,37.51,8.89,9.18,4.65,14.62,14.31,13.85,24.62l-5.6,75.91h23.31s5.48-74.23,5.48-74.23c1.44-19.54-8.94-37.9-26.45-46.77-14.95-7.57-31.14-11.42-48.11-11.42h-2.68c-16.97,0-33.15,3.84-48.11,11.42-17.51,8.87-27.89,27.22-26.44,46.76l5.48,74.24Z"/>
        <path class="cls-2" d="m1874.93,577.53h23.31s-5.6-75.92-5.6-75.92c-.76-10.3,4.68-19.97,13.85-24.62,11.65-5.9,24.27-8.89,37.51-8.89h2.68c13.25,0,25.87,2.99,37.51,8.89,9.18,4.65,14.62,14.31,13.86,24.62l-5.6,75.91h23.31s5.48-74.23,5.48-74.23c1.44-19.54-8.94-37.9-26.45-46.77-14.96-7.57-31.14-11.42-48.11-11.42h-2.68c-16.97,0-33.16,3.84-48.11,11.42-17.51,8.87-27.89,27.22-26.44,46.76l5.48,74.24Z"/>
        <path class="cls-2" d="m1025.24,288.43h23.31s-5.6,75.92-5.6,75.92c-.76,10.3,4.67,19.97,13.85,24.62,11.65,5.9,24.27,8.89,37.52,8.89h2.68c13.25,0,25.87-2.99,37.51-8.89,9.18-4.65,14.62-14.31,13.86-24.62l-5.6-75.91h23.31s5.48,74.23,5.48,74.23c1.44,19.54-8.94,37.9-26.45,46.77-14.95,7.57-31.14,11.42-48.11,11.42h-2.68c-16.97,0-33.16-3.84-48.11-11.42-17.51-8.87-27.89-27.22-26.44-46.76l5.48-74.24Z"/>
        <path class="cls-2" d="m1195.18,288.43h23.31s-5.6,75.92-5.6,75.92c-.76,10.3,4.67,19.97,13.85,24.62,11.65,5.9,24.27,8.89,37.52,8.89h2.68c13.25,0,25.87-2.99,37.51-8.89,9.18-4.65,14.62-14.31,13.86-24.62l-5.6-75.91h23.31s5.48,74.23,5.48,74.23c1.44,19.54-8.94,37.9-26.45,46.77-14.95,7.57-31.14,11.42-48.11,11.42h-2.68c-16.97,0-33.16-3.84-48.11-11.42-17.51-8.87-27.89-27.22-26.44-46.76l5.48-74.24Z"/>
        <path class="cls-2" d="m1365.12,288.43h23.31s-5.6,75.92-5.6,75.92c-.76,10.3,4.68,19.97,13.85,24.62,11.65,5.9,24.27,8.89,37.52,8.89h2.68c13.25,0,25.87-2.99,37.51-8.89,9.18-4.65,14.62-14.31,13.85-24.62l-5.6-75.91h23.31s5.48,74.23,5.48,74.23c1.44,19.54-8.94,37.9-26.45,46.77-14.95,7.57-31.14,11.42-48.11,11.42h-2.68c-16.97,0-33.16-3.84-48.11-11.42-17.51-8.87-27.89-27.22-26.44-46.76l5.48-74.24Z"/>
        <path class="cls-2" d="m1535.05,288.43h23.31s-5.6,75.92-5.6,75.92c-.76,10.3,4.68,19.97,13.85,24.62,11.65,5.9,24.27,8.89,37.51,8.89h2.68c13.25,0,25.87-2.99,37.51-8.89,9.18-4.65,14.62-14.31,13.85-24.62l-5.6-75.91h23.31s5.48,74.23,5.48,74.23c1.44,19.54-8.94,37.9-26.45,46.77-14.96,7.57-31.14,11.42-48.11,11.42h-2.68c-16.97,0-33.16-3.84-48.11-11.42-17.51-8.87-27.89-27.22-26.44-46.76l5.48-74.24Z"/>
        <path class="cls-2" d="m1704.99,288.43h23.31s-5.6,75.92-5.6,75.92c-.76,10.3,4.68,19.97,13.85,24.62,11.65,5.9,24.27,8.89,37.51,8.89h2.68c13.25,0,25.87-2.99,37.51-8.89,9.18-4.65,14.62-14.31,13.85-24.62l-5.6-75.91h23.31s5.48,74.23,5.48,74.23c1.44,19.54-8.94,37.9-26.45,46.77-14.95,7.57-31.14,11.42-48.11,11.42h-2.68c-16.97,0-33.15-3.84-48.11-11.42-17.51-8.87-27.89-27.22-26.44-46.76l5.48-74.24Z"/>
        <path class="cls-2" d="m1874.93,288.43h23.31s-5.6,75.92-5.6,75.92c-.76,10.3,4.68,19.97,13.85,24.62,11.65,5.9,24.27,8.89,37.51,8.89h2.68c13.25,0,25.87-2.99,37.51-8.89,9.18-4.65,14.62-14.31,13.86-24.62l-5.6-75.91h23.31s5.48,74.23,5.48,74.23c1.44,19.54-8.94,37.9-26.45,46.77-14.96,7.57-31.14,11.42-48.11,11.42h-2.68c-16.97,0-33.16-3.84-48.11-11.42-17.51-8.87-27.89-27.22-26.44-46.76l5.48-74.24Z"/>
      </g>
      <g>
        <path class="cls-2" d="m5.62,577.53h23.31s-5.6-75.92-5.6-75.92c-.76-10.3,4.67-19.97,13.85-24.62,11.65-5.9,24.27-8.89,37.52-8.89h2.68c13.25,0,25.87,2.99,37.51,8.89,9.18,4.65,14.62,14.31,13.86,24.62l-5.6,75.91h23.31s5.48-74.23,5.48-74.23c1.44-19.54-8.94-37.9-26.45-46.77-14.95-7.57-31.14-11.42-48.11-11.42h-2.68c-16.97,0-33.16,3.84-48.11,11.42-17.51,8.87-27.89,27.22-26.44,46.76l5.48,74.24Z"/>
        <path class="cls-2" d="m175.56,577.53h23.31s-5.6-75.92-5.6-75.92c-.76-10.3,4.67-19.97,13.85-24.62,11.65-5.9,24.27-8.89,37.52-8.89h2.68c13.25,0,25.87,2.99,37.51,8.89,9.18,4.65,14.62,14.31,13.86,24.62l-5.6,75.91h23.31s5.48-74.23,5.48-74.23c1.44-19.54-8.94-37.9-26.45-46.77-14.95-7.57-31.14-11.42-48.11-11.42h-2.68c-16.97,0-33.16,3.84-48.11,11.42-17.51,8.87-27.89,27.22-26.44,46.76l5.48,74.24Z"/>
        <path class="cls-2" d="m345.5,577.53h23.31s-5.6-75.92-5.6-75.92c-.76-10.3,4.68-19.97,13.85-24.62,11.65-5.9,24.27-8.89,37.52-8.89h2.68c13.25,0,25.87,2.99,37.51,8.89,9.18,4.65,14.62,14.31,13.85,24.62l-5.6,75.91h23.31s5.48-74.23,5.48-74.23c1.44-19.54-8.94-37.9-26.45-46.77-14.95-7.57-31.14-11.42-48.11-11.42h-2.68c-16.97,0-33.16,3.84-48.11,11.42-17.51,8.87-27.89,27.22-26.44,46.76l5.48,74.24Z"/>
        <path class="cls-2" d="m515.43,577.53h23.31s-5.6-75.92-5.6-75.92c-.76-10.3,4.68-19.97,13.85-24.62,11.65-5.9,24.27-8.89,37.51-8.89h2.68c13.25,0,25.87,2.99,37.51,8.89,9.18,4.65,14.62,14.31,13.85,24.62l-5.6,75.91h23.31s5.48-74.23,5.48-74.23c1.44-19.54-8.94-37.9-26.45-46.77-14.96-7.57-31.14-11.42-48.11-11.42h-2.68c-16.97,0-33.16,3.84-48.11,11.42-17.51,8.87-27.89,27.22-26.44,46.76l5.48,74.24Z"/>
        <path class="cls-2" d="m685.37,577.53h23.31s-5.6-75.92-5.6-75.92c-.76-10.3,4.68-19.97,13.85-24.62,11.65-5.9,24.27-8.89,37.51-8.89h2.68c13.25,0,25.87,2.99,37.51,8.89,9.18,4.65,14.62,14.31,13.85,24.62l-5.6,75.91h23.31s5.48-74.23,5.48-74.23c1.44-19.54-8.94-37.9-26.45-46.77-14.95-7.57-31.14-11.42-48.11-11.42h-2.68c-16.97,0-33.15,3.84-48.11,11.42-17.51,8.87-27.89,27.22-26.44,46.76l5.48,74.24Z"/>
        <path class="cls-2" d="m855.31,577.53h23.31s-5.6-75.92-5.6-75.92c-.76-10.3,4.68-19.97,13.85-24.62,11.65-5.9,24.27-8.89,37.51-8.89h2.68c13.25,0,25.87,2.99,37.51,8.89,9.18,4.65,14.62,14.31,13.86,24.62l-5.6,75.91h23.31s5.48-74.23,5.48-74.23c1.44-19.54-8.94-37.9-26.45-46.77-14.96-7.57-31.14-11.42-48.11-11.42h-2.68c-16.97,0-33.16,3.84-48.11,11.42-17.51,8.87-27.89,27.22-26.44,46.76l5.48,74.24Z"/>
        <path class="cls-2" d="m5.62,288.43h23.31s-5.6,75.92-5.6,75.92c-.76,10.3,4.67,19.97,13.85,24.62,11.65,5.9,24.27,8.89,37.52,8.89h2.68c13.25,0,25.87-2.99,37.51-8.89,9.18-4.65,14.62-14.31,13.86-24.62l-5.6-75.91h23.31s5.48,74.23,5.48,74.23c1.44,19.54-8.94,37.9-26.45,46.77-14.95,7.57-31.14,11.42-48.11,11.42h-2.68c-16.97,0-33.16-3.84-48.11-11.42-17.51-8.87-27.89-27.22-26.44-46.76l5.48-74.24Z"/>
        <path class="cls-2" d="m175.56,288.43h23.31s-5.6,75.92-5.6,75.92c-.76,10.3,4.67,19.97,13.85,24.62,11.65,5.9,24.27,8.89,37.52,8.89h2.68c13.25,0,25.87-2.99,37.51-8.89,9.18-4.65,14.62-14.31,13.86-24.62l-5.6-75.91h23.31s5.48,74.23,5.48,74.23c1.44,19.54-8.94,37.9-26.45,46.77-14.95,7.57-31.14,11.42-48.11,11.42h-2.68c-16.97,0-33.16-3.84-48.11-11.42-17.51-8.87-27.89-27.22-26.44-46.76l5.48-74.24Z"/>
        <path class="cls-2" d="m345.49,288.43h23.31s-5.6,75.92-5.6,75.92c-.76,10.3,4.68,19.97,13.85,24.62,11.65,5.9,24.27,8.89,37.52,8.89h2.68c13.25,0,25.87-2.99,37.51-8.89,9.18-4.65,14.62-14.31,13.85-24.62l-5.6-75.91h23.31s5.48,74.23,5.48,74.23c1.44,19.54-8.94,37.9-26.45,46.77-14.95,7.57-31.14,11.42-48.11,11.42h-2.68c-16.97,0-33.16-3.84-48.11-11.42-17.51-8.87-27.89-27.22-26.44-46.76l5.48-74.24Z"/>
        <path class="cls-2" d="m515.43,288.43h23.31s-5.6,75.92-5.6,75.92c-.76,10.3,4.68,19.97,13.85,24.62,11.65,5.9,24.27,8.89,37.51,8.89h2.68c13.25,0,25.87-2.99,37.51-8.89,9.18-4.65,14.62-14.31,13.85-24.62l-5.6-75.91h23.31s5.48,74.23,5.48,74.23c1.44,19.54-8.94,37.9-26.45,46.77-14.96,7.57-31.14,11.42-48.11,11.42h-2.68c-16.97,0-33.16-3.84-48.11-11.42-17.51-8.87-27.89-27.22-26.44-46.76l5.48-74.24Z"/>
        <path class="cls-2" d="m685.37,288.43h23.31s-5.6,75.92-5.6,75.92c-.76,10.3,4.68,19.97,13.85,24.62,11.65,5.9,24.27,8.89,37.51,8.89h2.68c13.25,0,25.87-2.99,37.51-8.89,9.18-4.65,14.62-14.31,13.85-24.62l-5.6-75.91h23.31s5.48,74.23,5.48,74.23c1.44,19.54-8.94,37.9-26.45,46.77-14.95,7.57-31.14,11.42-48.11,11.42h-2.68c-16.97,0-33.15-3.84-48.11-11.42-17.51-8.87-27.89-27.22-26.44-46.76l5.48-74.24Z"/>
        <path class="cls-2" d="m855.31,288.43h23.31s-5.6,75.92-5.6,75.92c-.76,10.3,4.68,19.97,13.85,24.62,11.65,5.9,24.27,8.89,37.51,8.89h2.68c13.25,0,25.87-2.99,37.51-8.89,9.18-4.65,14.62-14.31,13.86-24.62l-5.6-75.91h23.31s5.48,74.23,5.48,74.23c1.44,19.54-8.94,37.9-26.45,46.77-14.96,7.57-31.14,11.42-48.11,11.42h-2.68c-16.97,0-33.16-3.84-48.11-11.42-17.51-8.87-27.89-27.22-26.44-46.76l5.48-74.24Z"/>
      </g>
    </g>
  </g>
</svg>